<?xml version="1.0" encoding="utf-8"?>
<!-- Generator: Adobe Illustrator 24.3.0, SVG Export Plug-In . SVG Version: 6.00 Build 0)  -->
<svg version="1.1" id="Capa_1" xmlns="http://www.w3.org/2000/svg" xmlns:xlink="http://www.w3.org/1999/xlink" x="0px" y="0px"
	 viewBox="0 0 512 512" style="enable-background:new 0 0 512 512;" xml:space="preserve">
<style type="text/css">
	.st0{fill:#FFFFFF;}
</style>
<g>
	<g>
		<path class="st0" d="M328,36H216c-4.4,0-8,3.6-8,8s3.6,8,8,8h112c4.4,0,8-3.6,8-8S332.4,36,328,36z"/>
	</g>
</g>
<g>
	<g>
		<path class="st0" d="M288,36c-4.4,0-8,3.6-8,8v40c0,4.4,3.6,8,8,8s8-3.6,8-8V44C296,39.6,292.4,36,288,36z"/>
	</g>
</g>
<g>
	<g>
		<path class="st0" d="M288,76h-32c-4.4,0-8,3.6-8,8s3.6,8,8,8h32c4.4,0,8-3.6,8-8S292.4,76,288,76z"/>
	</g>
</g>
<g>
	<g>
		<path class="st0" d="M256,36c-4.4,0-8,3.6-8,8v40c0,4.4,3.6,8,8,8c4.4,0,8-3.6,8-8V44C264,39.6,260.4,36,256,36z"/>
	</g>
</g>
<g>
	<g>
		<path class="st0" d="M216,196h-96c-4.4,0-8,3.6-8,8s3.6,8,8,8h96c4.4,0,8-3.6,8-8S220.4,196,216,196z"/>
	</g>
</g>
<g>
	<g>
		<path class="st0" d="M328,180c-4.4,0-8,3.6-8,8v136c0,4.4,3.6,8,8,8s8-3.6,8-8V188C336,183.6,332.4,180,328,180z"/>
	</g>
</g>
<g>
	<g>
		<path class="st0" d="M504,380h-23.8c-4.4,0-8,3.6-8,8s3.6,8,8,8H504c4.4,0,8-3.6,8-8S508.4,380,504,380z"/>
	</g>
</g>
<g>
	<g>
		<path class="st0" d="M504,380c-4.4,0-8,3.6-8,8v32c0,4.4,3.6,8,8,8s8-3.6,8-8v-32C512,383.6,508.4,380,504,380z"/>
	</g>
</g>
<g>
	<g>
		<path class="st0" d="M80,412C80,412,80,412,80,412l-56,0.2c-4.4,0-8,3.6-8,8c0,4.4,3.6,8,8,8c0,0,0,0,0,0l56-0.2c4.4,0,8-3.6,8-8
			C88,415.6,84.4,412,80,412z"/>
	</g>
</g>
<g>
	<g>
		<path class="st0" d="M496,340h-8c-4.4,0-8,3.6-8,8s3.6,8,8,8h8c4.4,0,8-3.6,8-8S500.4,340,496,340z"/>
	</g>
</g>
<g>
	<g>
		<path class="st0" d="M496,284c-4.4,0-8,3.6-8,8v96c0,4.4,3.6,8,8,8s8-3.6,8-8v-96C504,287.6,500.4,284,496,284z"/>
	</g>
</g>
<g>
	<g>
		<path class="st0" d="M448,180H328c-4.4,0-8,3.6-8,8s3.6,8,8,8h120c4.4,0,8-3.6,8-8S452.4,180,448,180z"/>
	</g>
</g>
<g>
	<g>
		<path class="st0" d="M503.3,288.6l-48-104c-1.8-4-6.6-5.8-10.6-3.9c-4,1.8-5.8,6.6-3.9,10.6l48,104c1.4,2.9,4.2,4.6,7.3,4.6
			c1.1,0,2.3-0.2,3.3-0.7C503.4,297.4,505.1,292.7,503.3,288.6z"/>
	</g>
</g>
<g>
	<g>
		<path class="st0" d="M24,380c-4.4,0-8,3.6-8,8v32.5c0,4.4,3.6,8,8,8s8-3.6,8-8V388C32,383.6,28.4,380,24,380z"/>
	</g>
</g>
<g>
	<g>
		<path class="st0" d="M8,276c-4.4,0-8,3.6-8,8v104c0,4.4,3.6,8,8,8s8-3.6,8-8V284C16,279.6,12.4,276,8,276z"/>
	</g>
</g>
<g>
	<g>
		<path class="st0" d="M328,276H8c-4.4,0-8,3.6-8,8s3.6,8,8,8h320c4.4,0,8-3.6,8-8S332.4,276,328,276z"/>
	</g>
</g>
<g>
	<g>
		<path class="st0" d="M48,380H8c-4.4,0-8,3.6-8,8s3.6,8,8,8h40c4.4,0,8-3.6,8-8S52.4,380,48,380z"/>
	</g>
</g>
<g>
	<g>
		<path class="st0" d="M128,364c-30.9,0-56,25.1-56,56s25.1,56,56,56s56-25.1,56-56S158.9,364,128,364z M128,460
			c-22.1,0-40-17.9-40-40s17.9-40,40-40s40,17.9,40,40S150.1,460,128,460z"/>
	</g>
</g>
<g>
	<g>
		<path class="st0" d="M128,396c-13.2,0-24,10.8-24,24s10.8,24,24,24s24-10.8,24-24S141.2,396,128,396z M128,428c-4.4,0-8-3.6-8-8
			s3.6-8,8-8s8,3.6,8,8S132.4,428,128,428z"/>
	</g>
</g>
<g>
	<g>
		<path class="st0" d="M392,396c-13.2,0-24,10.8-24,24s10.8,24,24,24s24-10.8,24-24S405.2,396,392,396z M392,428c-4.4,0-8-3.6-8-8
			s3.6-8,8-8s8,3.6,8,8S396.4,428,392,428z"/>
	</g>
</g>
<g>
	<g>
		<path class="st0" d="M392,364c-30.9,0-56,25.1-56,56s25.1,56,56,56s56-25.1,56-56S422.9,364,392,364z M392,460
			c-22.1,0-40-17.9-40-40s17.9-40,40-40s40,17.9,40,40S414.1,460,392,460z"/>
	</g>
</g>
<g>
	<g>
		<path class="st0" d="M344.2,412H176c-4.4,0-8,3.6-8,8s3.6,8,8,8h168.2c4.4,0,8-3.6,8-8S348.6,412,344.2,412z"/>
	</g>
</g>
<g>
	<g>
		<path class="st0" d="M504,412h-64c-4.4,0-8,3.6-8,8s3.6,8,8,8h64c4.4,0,8-3.6,8-8S508.4,412,504,412z"/>
	</g>
</g>
<g>
	<g>
		<path class="st0" d="M496,284h-96c-4.4,0-8,3.6-8,8s3.6,8,8,8h96c4.4,0,8-3.6,8-8S500.4,284,496,284z"/>
	</g>
</g>
<g>
	<g>
		<path class="st0" d="M400,284c-13.2,0-24-10.8-24-24c0-4.4-3.6-8-8-8s-8,3.6-8,8c0,22.1,17.9,40,40,40c4.4,0,8-3.6,8-8
			S404.4,284,400,284z"/>
	</g>
</g>
<g>
	<g>
		<path class="st0" d="M368,180c-4.4,0-8,3.6-8,8v72c0,4.4,3.6,8,8,8s8-3.6,8-8v-72C376,183.6,372.4,180,368,180z"/>
	</g>
</g>
<g>
	<g>
		<path class="st0" d="M328,36c-4.4,0-8,3.6-8,8v240c0,4.4,3.6,8,8,8s8-3.6,8-8V44C336,39.6,332.4,36,328,36z"/>
	</g>
</g>
<g>
	<g>
		<path class="st0" d="M216,36c-4.4,0-8,3.6-8,8v240c0,4.4,3.6,8,8,8s8-3.6,8-8V44C224,39.6,220.4,36,216,36z"/>
	</g>
</g>
<g>
	<g>
		<path class="st0" d="M120,100c-4.4,0-8,3.6-8,8v176c0,4.4,3.6,8,8,8s8-3.6,8-8V108C128,103.6,124.4,100,120,100z"/>
	</g>
</g>
<g>
	<g>
		<path class="st0" d="M168,196c-4.4,0-8,3.6-8,8v24c0,4.4,3.6,8,8,8s8-3.6,8-8v-24C176,199.6,172.4,196,168,196z"/>
	</g>
</g>
<g>
	<g>
		<path class="st0" d="M216,100h-96c-4.4,0-8,3.6-8,8s3.6,8,8,8h96c4.4,0,8-3.6,8-8S220.4,100,216,100z"/>
	</g>
</g>
<g>
	<g>
		<path class="st0" d="M168,100c-4.4,0-8,3.6-8,8v16c0,4.4,3.6,8,8,8s8-3.6,8-8v-16C176,103.6,172.4,100,168,100z"/>
	</g>
</g>
<g>
	<g>
		<path class="st0" d="M24,156c-4.4,0-8,3.6-8,8v120c0,4.4,3.6,8,8,8s8-3.6,8-8V164C32,159.6,28.4,156,24,156z"/>
	</g>
</g>
<g>
	<g>
		<path class="st0" d="M120,156H24c-4.4,0-8,3.6-8,8s3.6,8,8,8h96c4.4,0,8-3.6,8-8S124.4,156,120,156z"/>
	</g>
</g>
<g>
	<g>
		<path class="st0" d="M56,156c-4.4,0-8,3.6-8,8v24c0,4.4,3.6,8,8,8s8-3.6,8-8v-24C64,159.6,60.4,156,56,156z"/>
	</g>
</g>
<g>
	<g>
		<path class="st0" d="M88,180H56c-4.4,0-8,3.6-8,8s3.6,8,8,8h32c4.4,0,8-3.6,8-8S92.4,180,88,180z"/>
	</g>
</g>
<g>
	<g>
		<path class="st0" d="M88,156c-4.4,0-8,3.6-8,8v24c0,4.4,3.6,8,8,8s8-3.6,8-8v-24C96,159.6,92.4,156,88,156z"/>
	</g>
</g>
</svg>
