<?xml version="1.0" encoding="utf-8"?>
<!-- Generator: Adobe Illustrator 25.4.1, SVG Export Plug-In . SVG Version: 6.00 Build 0)  -->
<svg version="1.1" id="Capa_1" xmlns="http://www.w3.org/2000/svg" xmlns:xlink="http://www.w3.org/1999/xlink" x="0px" y="0px"
	 viewBox="0 0 512 512" style="enable-background:new 0 0 512 512;" xml:space="preserve">
<style type="text/css">
	.st0{fill:#ED0101;}
</style>
<g>
	<g>
		<path class="st0" d="M256,0c-71,0-128.8,57.8-128.8,128.8S185,257.6,256,257.6s128.8-57.8,128.8-128.8S327,0,256,0z M256,219.7
			c-50.1,0-90.9-40.8-90.9-90.9s40.8-90.9,90.9-90.9s90.9,40.8,90.9,90.9S306.1,219.7,256,219.7z"/>
	</g>
</g>
<g>
	<g>
		<path class="st0" d="M256,303c-113.3,0-202,91.8-202,209h37.9c0-97.5,70.6-171.1,164.1-171.1S420.1,414.5,420.1,512H458
			C458,394.8,369.3,303,256,303z"/>
	</g>
</g>
</svg>
