<?xml version="1.0" encoding="utf-8"?>
<!-- Generator: Adobe Illustrator 25.1.0, SVG Export Plug-In . SVG Version: 6.00 Build 0)  -->
<svg version="1.1" id="Capa_1" xmlns="http://www.w3.org/2000/svg" xmlns:xlink="http://www.w3.org/1999/xlink" x="0px" y="0px"
	 viewBox="0 0 137.4 139.1" style="enable-background:new 0 0 137.4 139.1;" xml:space="preserve">
<style type="text/css">
	.st0{fill:#FFFFFF;}
</style>
<g>
	<path class="st0" d="M99.3,2H38.7C18.1,2,1.4,18.7,1.4,39.3v60.6c0,20.6,16.7,37.3,37.3,37.3h60.6c20.6,0,37.3-16.7,37.3-37.3V39.3
		C136.6,18.7,119.9,2,99.3,2L99.3,2z M124.6,99.9c0,14-11.4,25.3-25.3,25.3H38.7c-14,0-25.3-11.4-25.3-25.3V39.3
		c0-14,11.4-25.3,25.3-25.3h60.6c14,0,25.3,11.4,25.3,25.3C124.6,39.3,124.6,99.9,124.6,99.9z"/>
	<path class="st0" d="M69,34.8c-19.2,0-34.9,15.6-34.9,34.8s15.6,34.9,34.9,34.9c19.2,0,34.9-15.6,34.9-34.9
		C103.9,50.4,88.2,34.8,69,34.8L69,34.8z M69,92.5c-12.6,0-22.9-10.2-22.9-22.8C46.2,57,56.4,46.8,69,46.8S91.9,57,91.9,69.6
		S81.6,92.5,69,92.5L69,92.5z"/>
	<path class="st0" d="M105.3,24.6c-2.3,0-4.6,0.9-6.2,2.6c-1.6,1.6-2.6,3.9-2.6,6.2s0.9,4.6,2.6,6.2c1.6,1.6,3.9,2.6,6.2,2.6
		c2.3,0,4.6-0.9,6.2-2.6c1.6-1.6,2.6-3.9,2.6-6.2s-0.9-4.6-2.6-6.2C109.9,25.5,107.7,24.6,105.3,24.6L105.3,24.6z"/>
</g>
</svg>
