<?xml version="1.0" encoding="utf-8"?>
<!-- Generator: Adobe Illustrator 25.3.1, SVG Export Plug-In . SVG Version: 6.00 Build 0)  -->
<svg version="1.1" id="Capa_1" xmlns="http://www.w3.org/2000/svg" xmlns:xlink="http://www.w3.org/1999/xlink" x="0px" y="0px"
	 viewBox="0 0 100 100" style="enable-background:new 0 0 100 100;" xml:space="preserve">
<style type="text/css">
	.st0{fill-rule:evenodd;clip-rule:evenodd;fill:#FFFFFF;}
</style>
<g>
	<path class="st0" d="M98.6,48.8c0,26.1-21.4,47.3-47.7,47.3c-8.4,0-16.2-2.1-23.1-5.9L1.4,98.6L10,73.2c-4.3-7.1-6.8-15.5-6.8-24.4
		c0-26.1,21.4-47.3,47.7-47.3C77.2,1.4,98.6,22.6,98.6,48.8L98.6,48.8z M50.9,9C28.8,9,10.8,26.8,10.8,48.8c0,8.7,2.8,16.8,7.6,23.3
		l-5,14.8L28.8,82c6.3,4.2,13.9,6.6,22.1,6.6C73,88.5,91,70.7,91,48.8C91,26.8,73,9,50.9,9L50.9,9z M75,59.7
		c-0.3-0.5-1.1-0.8-2.2-1.4c-1.2-0.6-6.9-3.4-8-3.8c-1.1-0.4-1.9-0.6-2.6,0.6c-0.8,1.2-3,3.8-3.7,4.5c-0.7,0.8-1.4,0.9-2.5,0.3
		c-1.2-0.6-4.9-1.8-9.4-5.8c-3.5-3.1-5.8-6.9-6.5-8c-0.7-1.2-0.1-1.8,0.5-2.4c0.5-0.5,1.2-1.4,1.8-2c0.6-0.7,0.8-1.2,1.2-1.9
		c0.4-0.8,0.2-1.4-0.1-2s-2.6-6.3-3.6-8.6s-1.9-1.9-2.6-1.9c-0.7,0-1.5-0.1-2.2-0.1c-0.8,0-2,0.3-3.1,1.5c-1.1,1.2-4.1,4-4.1,9.7
		s4.2,11.2,4.8,12c0.6,0.8,8.1,12.9,20,17.5s11.9,3.1,14,2.9s6.9-2.8,7.9-5.5C75.3,62.5,75.3,60.1,75,59.7L75,59.7z"/>
</g>
</svg>
